<svg width="52" height="48" viewBox="0 0 52 48" fill="none" xmlns="http://www.w3.org/2000/svg">
<g clip-path="url(#clip0_390_13049)">
<rect x="33.1289" y="32.2473" width="14.2581" height="17.0538" rx="2.85401" transform="rotate(-180 33.1289 32.2473)" fill="black"/>
<rect y="0.0966797" width="24.8817" height="22.7849" rx="4.47312" fill="black"/>
<rect x="27.1182" y="0.0966797" width="24.8817" height="22.7849" rx="4.47312" fill="black"/>
<path d="M13.9785 4.56958C13.9785 4.56958 19.8114 15.333 26.2134 15.333C32.6154 15.333 38.0215 4.56958 38.0215 4.56958" stroke="white" stroke-width="2.23656" stroke-linecap="round"/>
<rect y="25.1184" width="24.8817" height="22.7849" rx="4.47312" fill="black"/>
<rect x="27.1182" y="25.1182" width="24.8817" height="22.7849" rx="4.47312" fill="black"/>
<path d="M38.0215 43.4304C38.0215 43.4304 32.1886 32.667 25.7866 32.667C19.3846 32.667 13.9785 43.4304 13.9785 43.4304" stroke="white" stroke-width="2.23656" stroke-linecap="round"/>
<path d="M8.66699 36.0212C8.66699 36.0212 19.4304 30.1883 19.4304 23.7863C19.4304 17.3844 8.66699 11.9782 8.66699 11.9782" stroke="white" stroke-width="2.23656" stroke-linecap="round"/>
<path d="M43.334 11.9783C43.334 11.9783 32.5705 17.8112 32.5705 24.2132C32.5705 30.6152 43.334 36.0213 43.334 36.0213" stroke="white" stroke-width="2.23656" stroke-linecap="round"/>
</g>
<defs>
<clipPath id="clip0_390_13049">
<rect y="0.0966797" width="52" height="47.8065" rx="5.20766" fill="white"/>
</clipPath>
</defs>
</svg>
